Video
ID                               : 1
Format                           : AVC
Format/Info                      : Advanced Video Codec
Format profile                   : Baseline@L1.3
Format settings, CABAC           : No
Format settings, ReFrames        : 1 frame
Codec ID                         : avc1
Codec ID/Info                    : Advanced Video Coding
Duration                         : 1h 33mn
Bit rate mode                    : Variable
Bit rate                         : 513 Kbps
Width                            : 640 pixels
Height                           : 368 pixels
Original height                  : 360 pixels
Display aspect ratio             : 16:9
Original display aspect ratio    : 16:9
Frame rate mode                  : Constant
Frame rate                       : 25.000 fps
Color space                      : YUV
Chroma subsampling               : 4:2:0
Bit depth                        : 8 bits
Scan type                        : Progressive
Bits/(Pixel*Frame)               : 0.087
Stream size                      : 342 MiB (79%)
Language                         : English
Encoded date                     : UTC 2011-06-07 05:40:25
Tagged date                      : UTC 2011-06-07 05:40:36

Audio
ID                               : 2
Format                           : AAC
Format/Info                      : Advanced Audio Codec
Format version                   : Version 4
Format profile                   : LC
Codec ID                         : 40
Duration                         : 1h 33mn
Bit rate mode                    : Variable
Bit rate                         : 132.3 Kbps
Maximum bit rate                 : 275 Kbps
Channel(s)                       : 2 channels
Channel positions                : Front: L R
Sampling rate                    : 48.0 KHz
Stream size                      : 86.8 MiB (20%)
Language                         : English
Encoded date                     : UTC 2011-06-07 05:40:36
Tagged date                      : UTC 2011-06-07 05:40:38